<?xml version="1.0" encoding="UTF-8"?>
<svg xmlns="http://www.w3.org/2000/svg" viewBox="0 0 100 100" width="100" height="100">
<rect x="41.20" y="0.00" width="17.60" height="17.60" rx="3.52" ry="3.52" fill="#FBBF24"/>
<rect x="20.60" y="20.60" width="17.60" height="17.60" rx="3.52" ry="3.52" fill="#FBBF24"/>
<rect x="41.20" y="20.60" width="17.60" height="17.60" rx="3.52" ry="3.52" fill="#FBBF24"/>
<rect x="61.80" y="20.60" width="17.60" height="17.60" rx="3.52" ry="3.52" fill="#FBBF24"/>
<rect x="0.00" y="41.20" width="17.60" height="17.60" rx="3.52" ry="3.52" fill="#FBBF24"/>
<rect x="20.60" y="41.20" width="17.60" height="17.60" rx="3.52" ry="3.52" fill="#FBBF24"/>
<rect x="41.20" y="41.20" width="17.60" height="17.60" rx="3.52" ry="3.52" fill="#FBBF24"/>
<rect x="61.80" y="41.20" width="17.60" height="17.60" rx="3.52" ry="3.52" fill="#FBBF24"/>
<rect x="82.40" y="41.20" width="17.60" height="17.60" rx="3.52" ry="3.52" fill="#FBBF24"/>
<rect x="20.60" y="61.80" width="17.60" height="17.60" rx="3.52" ry="3.52" fill="#FBBF24"/>
<rect x="41.20" y="61.80" width="17.60" height="17.60" rx="3.52" ry="3.52" fill="#FBBF24"/>
<rect x="61.80" y="61.80" width="17.60" height="17.60" rx="3.52" ry="3.52" fill="#FBBF24"/>
<rect x="20.60" y="82.40" width="17.60" height="17.60" rx="3.52" ry="3.52" fill="#FBBF24"/>
<rect x="61.80" y="82.40" width="17.60" height="17.60" rx="3.52" ry="3.52" fill="#FBBF24"/>
</svg>